<?xml version="1.0" encoding="UTF-8"?>
<svg xmlns="http://www.w3.org/2000/svg" 
     viewBox="0 0 400 400" 
     width="400" height="400">
  <title>Complex Wafer Layout - 7x7 Grid</title>
  <desc>Realistic wafer layout with 49 dies for comprehensive demo testing</desc>
  
  <!-- Wafer outline -->
  <circle cx="200" cy="200" r="190" fill="none" stroke="#333" stroke-width="3"/>
  
  <!-- Flat/notch indicator -->
  <path d="M 200 10 L 190 20 L 210 20 Z" fill="#666" stroke="#333"/>
  <text x="200" y="35" text-anchor="middle" font-size="10" fill="#666">Notch</text>
  
  <!-- Die grid (7x7) centered in wafer -->
  <!-- Row 1 -->
  <rect id="die_101" x="95" y="95" width="25" height="25" fill="#4CAF50" stroke="#333" stroke-width="0.5"/>
  <text x="107.5" y="110" text-anchor="middle" font-size="6" fill="white">101</text>
  
  <rect id="die_102" x="125" y="95" width="25" height="25" fill="#4CAF50" stroke="#333" stroke-width="0.5"/>
  <text x="137.5" y="110" text-anchor="middle" font-size="6" fill="white">102</text>
  
  <rect id="die_103" x="155" y="95" width="25" height="25" fill="#4CAF50" stroke="#333" stroke-width="0.5"/>
  <text x="167.5" y="110" text-anchor="middle" font-size="6" fill="white">103</text>
  
  <rect id="die_104" x="185" y="95" width="25" height="25" fill="#4CAF50" stroke="#333" stroke-width="0.5"/>
  <text x="197.5" y="110" text-anchor="middle" font-size="6" fill="white">104</text>
  
  <rect id="die_105" x="215" y="95" width="25" height="25" fill="#4CAF50" stroke="#333" stroke-width="0.5"/>
  <text x="227.5" y="110" text-anchor="middle" font-size="6" fill="white">105</text>
  
  <rect id="die_106" x="245" y="95" width="25" height="25" fill="#4CAF50" stroke="#333" stroke-width="0.5"/>
  <text x="257.5" y="110" text-anchor="middle" font-size="6" fill="white">106</text>
  
  <rect id="die_107" x="275" y="95" width="25" height="25" fill="#4CAF50" stroke="#333" stroke-width="0.5"/>
  <text x="287.5" y="110" text-anchor="middle" font-size="6" fill="white">107</text>
  
  <!-- Row 2 -->
  <rect id="die_201" x="95" y="125" width="25" height="25" fill="#4CAF50" stroke="#333" stroke-width="0.5"/>
  <text x="107.5" y="140" text-anchor="middle" font-size="6" fill="white">201</text>
  
  <rect id="die_202" x="125" y="125" width="25" height="25" fill="#4CAF50" stroke="#333" stroke-width="0.5"/>
  <text x="137.5" y="140" text-anchor="middle" font-size="6" fill="white">202</text>
  
  <rect id="die_203" x="155" y="125" width="25" height="25" fill="#4CAF50" stroke="#333" stroke-width="0.5"/>
  <text x="167.5" y="140" text-anchor="middle" font-size="6" fill="white">203</text>
  
  <rect id="die_204" x="185" y="125" width="25" height="25" fill="#4CAF50" stroke="#333" stroke-width="0.5"/>
  <text x="197.5" y="140" text-anchor="middle" font-size="6" fill="white">204</text>
  
  <rect id="die_205" x="215" y="125" width="25" height="25" fill="#4CAF50" stroke="#333" stroke-width="0.5"/>
  <text x="227.5" y="140" text-anchor="middle" font-size="6" fill="white">205</text>
  
  <rect id="die_206" x="245" y="125" width="25" height="25" fill="#4CAF50" stroke="#333" stroke-width="0.5"/>
  <text x="257.5" y="140" text-anchor="middle" font-size="6" fill="white">206</text>
  
  <rect id="die_207" x="275" y="125" width="25" height="25" fill="#4CAF50" stroke="#333" stroke-width="0.5"/>
  <text x="287.5" y="140" text-anchor="middle" font-size="6" fill="white">207</text>
  
  <!-- Row 3 -->
  <rect id="die_301" x="95" y="155" width="25" height="25" fill="#4CAF50" stroke="#333" stroke-width="0.5"/>
  <text x="107.5" y="170" text-anchor="middle" font-size="6" fill="white">301</text>
  
  <rect id="die_302" x="125" y="155" width="25" height="25" fill="#4CAF50" stroke="#333" stroke-width="0.5"/>
  <text x="137.5" y="170" text-anchor="middle" font-size="6" fill="white">302</text>
  
  <rect id="die_303" x="155" y="155" width="25" height="25" fill="#4CAF50" stroke="#333" stroke-width="0.5"/>
  <text x="167.5" y="170" text-anchor="middle" font-size="6" fill="white">303</text>
  
  <rect id="die_304" x="185" y="155" width="25" height="25" fill="#4CAF50" stroke="#333" stroke-width="0.5"/>
  <text x="197.5" y="170" text-anchor="middle" font-size="6" fill="white">304</text>
  
  <rect id="die_305" x="215" y="155" width="25" height="25" fill="#4CAF50" stroke="#333" stroke-width="0.5"/>
  <text x="227.5" y="170" text-anchor="middle" font-size="6" fill="white">305</text>
  
  <rect id="die_306" x="245" y="155" width="25" height="25" fill="#4CAF50" stroke="#333" stroke-width="0.5"/>
  <text x="257.5" y="170" text-anchor="middle" font-size="6" fill="white">306</text>
  
  <rect id="die_307" x="275" y="155" width="25" height="25" fill="#4CAF50" stroke="#333" stroke-width="0.5"/>
  <text x="287.5" y="170" text-anchor="middle" font-size="6" fill="white">307</text>
  
  <!-- Row 4 (Center) -->
  <rect id="die_401" x="95" y="185" width="25" height="25" fill="#4CAF50" stroke="#333" stroke-width="0.5"/>
  <text x="107.5" y="200" text-anchor="middle" font-size="6" fill="white">401</text>
  
  <rect id="die_402" x="125" y="185" width="25" height="25" fill="#4CAF50" stroke="#333" stroke-width="0.5"/>
  <text x="137.5" y="200" text-anchor="middle" font-size="6" fill="white">402</text>
  
  <rect id="die_403" x="155" y="185" width="25" height="25" fill="#4CAF50" stroke="#333" stroke-width="0.5"/>
  <text x="167.5" y="200" text-anchor="middle" font-size="6" fill="white">403</text>
  
  <rect id="die_404" x="185" y="185" width="25" height="25" fill="#FF9800" stroke="#333" stroke-width="0.5"/>
  <text x="197.5" y="200" text-anchor="middle" font-size="6" fill="white">404</text>
  <!-- Center die highlighted in orange -->
  
  <rect id="die_405" x="215" y="185" width="25" height="25" fill="#4CAF50" stroke="#333" stroke-width="0.5"/>
  <text x="227.5" y="200" text-anchor="middle" font-size="6" fill="white">405</text>
  
  <rect id="die_406" x="245" y="185" width="25" height="25" fill="#4CAF50" stroke="#333" stroke-width="0.5"/>
  <text x="257.5" y="200" text-anchor="middle" font-size="6" fill="white">406</text>
  
  <rect id="die_407" x="275" y="185" width="25" height="25" fill="#4CAF50" stroke="#333" stroke-width="0.5"/>
  <text x="287.5" y="200" text-anchor="middle" font-size="6" fill="white">407</text>
  
  <!-- Row 5 -->
  <rect id="die_501" x="95" y="215" width="25" height="25" fill="#4CAF50" stroke="#333" stroke-width="0.5"/>
  <text x="107.5" y="230" text-anchor="middle" font-size="6" fill="white">501</text>
  
  <rect id="die_502" x="125" y="215" width="25" height="25" fill="#4CAF50" stroke="#333" stroke-width="0.5"/>
  <text x="137.5" y="230" text-anchor="middle" font-size="6" fill="white">502</text>
  
  <rect id="die_503" x="155" y="215" width="25" height="25" fill="#4CAF50" stroke="#333" stroke-width="0.5"/>
  <text x="167.5" y="230" text-anchor="middle" font-size="6" fill="white">503</text>
  
  <rect id="die_504" x="185" y="215" width="25" height="25" fill="#4CAF50" stroke="#333" stroke-width="0.5"/>
  <text x="197.5" y="230" text-anchor="middle" font-size="6" fill="white">504</text>
  
  <rect id="die_505" x="215" y="215" width="25" height="25" fill="#4CAF50" stroke="#333" stroke-width="0.5"/>
  <text x="227.5" y="230" text-anchor="middle" font-size="6" fill="white">505</text>
  
  <rect id="die_506" x="245" y="215" width="25" height="25" fill="#4CAF50" stroke="#333" stroke-width="0.5"/>
  <text x="257.5" y="230" text-anchor="middle" font-size="6" fill="white">506</text>
  
  <rect id="die_507" x="275" y="215" width="25" height="25" fill="#4CAF50" stroke="#333" stroke-width="0.5"/>
  <text x="287.5" y="230" text-anchor="middle" font-size="6" fill="white">507</text>
  
  <!-- Row 6 -->
  <rect id="die_601" x="95" y="245" width="25" height="25" fill="#4CAF50" stroke="#333" stroke-width="0.5"/>
  <text x="107.5" y="260" text-anchor="middle" font-size="6" fill="white">601</text>
  
  <rect id="die_602" x="125" y="245" width="25" height="25" fill="#4CAF50" stroke="#333" stroke-width="0.5"/>
  <text x="137.5" y="260" text-anchor="middle" font-size="6" fill="white">602</text>
  
  <rect id="die_603" x="155" y="245" width="25" height="25" fill="#4CAF50" stroke="#333" stroke-width="0.5"/>
  <text x="167.5" y="260" text-anchor="middle" font-size="6" fill="white">603</text>
  
  <rect id="die_604" x="185" y="245" width="25" height="25" fill="#4CAF50" stroke="#333" stroke-width="0.5"/>
  <text x="197.5" y="260" text-anchor="middle" font-size="6" fill="white">604</text>
  
  <rect id="die_605" x="215" y="245" width="25" height="25" fill="#4CAF50" stroke="#333" stroke-width="0.5"/>
  <text x="227.5" y="260" text-anchor="middle" font-size="6" fill="white">605</text>
  
  <rect id="die_606" x="245" y="245" width="25" height="25" fill="#4CAF50" stroke="#333" stroke-width="0.5"/>
  <text x="257.5" y="260" text-anchor="middle" font-size="6" fill="white">606</text>
  
  <rect id="die_607" x="275" y="245" width="25" height="25" fill="#4CAF50" stroke="#333" stroke-width="0.5"/>
  <text x="287.5" y="260" text-anchor="middle" font-size="6" fill="white">607</text>
  
  <!-- Row 7 -->
  <rect id="die_701" x="95" y="275" width="25" height="25" fill="#4CAF50" stroke="#333" stroke-width="0.5"/>
  <text x="107.5" y="290" text-anchor="middle" font-size="6" fill="white">701</text>
  
  <rect id="die_702" x="125" y="275" width="25" height="25" fill="#4CAF50" stroke="#333" stroke-width="0.5"/>
  <text x="137.5" y="290" text-anchor="middle" font-size="6" fill="white">702</text>
  
  <rect id="die_703" x="155" y="275" width="25" height="25" fill="#4CAF50" stroke="#333" stroke-width="0.5"/>
  <text x="167.5" y="290" text-anchor="middle" font-size="6" fill="white">703</text>
  
  <rect id="die_704" x="185" y="275" width="25" height="25" fill="#4CAF50" stroke="#333" stroke-width="0.5"/>
  <text x="197.5" y="290" text-anchor="middle" font-size="6" fill="white">704</text>
  
  <rect id="die_705" x="215" y="275" width="25" height="25" fill="#4CAF50" stroke="#333" stroke-width="0.5"/>
  <text x="227.5" y="290" text-anchor="middle" font-size="6" fill="white">705</text>
  
  <rect id="die_706" x="245" y="275" width="25" height="25" fill="#4CAF50" stroke="#333" stroke-width="0.5"/>
  <text x="257.5" y="290" text-anchor="middle" font-size="6" fill="white">706</text>
  
  <rect id="die_707" x="275" y="275" width="25" height="25" fill="#4CAF50" stroke="#333" stroke-width="0.5"/>
  <text x="287.5" y="290" text-anchor="middle" font-size="6" fill="white">707</text>
  
  <!-- Edge dies marked as unavailable (near wafer edge) -->
  <rect id="die_edge_1" x="65" y="185" width="25" height="25" fill="#F44336" stroke="#333" stroke-width="0.5"/>
  <text x="77.5" y="200" text-anchor="middle" font-size="6" fill="white">E01</text>
  
  <rect id="die_edge_2" x="305" y="185" width="25" height="25" fill="#F44336" stroke="#333" stroke-width="0.5"/>
  <text x="317.5" y="200" text-anchor="middle" font-size="6" fill="white">E02</text>
  
  <rect id="die_edge_3" x="185" y="65" width="25" height="25" fill="#F44336" stroke="#333" stroke-width="0.5"/>
  <text x="197.5" y="80" text-anchor="middle" font-size="6" fill="white">E03</text>
  
  <rect id="die_edge_4" x="185" y="305" width="25" height="25" fill="#F44336" stroke="#333" stroke-width="0.5"/>
  <text x="197.5" y="320" text-anchor="middle" font-size="6" fill="white">E04</text>
  
  <!-- Measurement markers -->
  <g id="measurement_markers" stroke="#666" stroke-width="1" fill="none">
    <!-- Horizontal measurement line -->
    <line x1="95" y1="350" x2="300" y2="350"/>
    <line x1="95" y1="345" x2="95" y2="355"/>
    <line x1="300" y1="345" x2="300" y2="355"/>
    <text x="197.5" y="365" text-anchor="middle" font-size="8" fill="#666">25mm die pitch</text>
    
    <!-- Vertical measurement line -->
    <line x1="50" y1="95" x2="50" y2="300"/>
    <line x1="45" y1="95" x2="55" y2="95"/>
    <line x1="45" y1="300" x2="55" y2="300"/>
    <text x="40" y="200" text-anchor="middle" font-size="8" fill="#666" transform="rotate(-90, 40, 200)">175mm total</text>
  </g>
  
  <!-- Legend -->
  <g id="legend" transform="translate(10, 320)">
    <rect x="0" y="0" width="80" height="60" fill="white" stroke="#333" stroke-width="1" rx="3"/>
    
    <rect x="5" y="8" width="8" height="8" fill="#4CAF50"/>
    <text x="18" y="16" font-size="7" fill="#333">Available</text>
    
    <rect x="5" y="20" width="8" height="8" fill="#FF9800"/>
    <text x="18" y="28" font-size="7" fill="#333">Center</text>
    
    <rect x="5" y="32" width="8" height="8" fill="#F44336"/>
    <text x="18" y="40" font-size="7" fill="#333">Edge/Unavailable</text>
    
    <text x="5" y="52" font-size="6" fill="#666">49 total dies</text>
  </g>
  
  <!-- Coordinate system indicator -->
  <g id="coordinates" transform="translate(350, 50)">
    <line x1="0" y1="0" x2="20" y2="0" stroke="#333" stroke-width="2" marker-end="url(#arrowhead)"/>
    <line x1="0" y1="0" x2="0" y2="20" stroke="#333" stroke-width="2" marker-end="url(#arrowhead)"/>
    <text x="25" y="5" font-size="8" fill="#333">+X</text>
    <text x="5" y="30" font-size="8" fill="#333">+Y</text>
  </g>
  
  <!-- Arrow marker definition -->
  <defs>
    <marker id="arrowhead" markerWidth="10" markerHeight="7" 
            refX="9" refY="3.5" orient="auto">
      <polygon points="0 0, 10 3.5, 0 7" fill="#333"/>
    </marker>
  </defs>
</svg>